<?xml version="1.0"?>
<svg xmlns="http://www.w3.org/2000/svg" xmlns:xlink="http://www.w3.org/1999/xlink" version="1.1" viewBox="0 0 224 224" width="32px" height="32px"><g fill="none" fill-rule="nonzero" stroke="none" stroke-width="1" stroke-linecap="butt" stroke-linejoin="miter" stroke-miterlimit="10" stroke-dasharray="" stroke-dashoffset="0" font-family="none" font-weight="none" font-size="none" text-anchor="none" style="mix-blend-mode: normal"><path d="M0,224v-224h224v224z" fill="none"/><path d="M112,224c-61.85589,0 -112,-50.14411 -112,-112v0c0,-61.85589 50.14411,-112 112,-112v0c61.85589,0 112,50.14411 112,112v0c0,61.85589 -50.14411,112 -112,112z" fill="#97e0ef"/><g fill="#ffffff"><g id="surface1"><path d="M64.4,50.4c-7.65625,0 -14,6.34375 -14,14v95.2c0,7.65625 6.34375,14 14,14h95.2c7.65625,0 14,-6.34375 14,-14v-95.2c0,-7.65625 -6.34375,-14 -14,-14zM64.4,61.6h95.2c1.59687,0 2.8,1.20313 2.8,2.8v95.2c0,1.59687 -1.20313,2.8 -2.8,2.8h-95.2c-1.59687,0 -2.8,-1.20313 -2.8,-2.8v-95.2c0,-1.59687 1.20313,-2.8 2.8,-2.8zM80.85,71.225c-5.31563,0 -9.625,4.30937 -9.625,9.625c0,5.31563 4.30937,9.625 9.625,9.625c5.31563,0 9.625,-4.30937 9.625,-9.625c0,-5.31563 -4.30937,-9.625 -9.625,-9.625zM131.425,96.775c-8.02813,0 -13.36563,4.39687 -15.575,8.575h-0.35v-7.35h-15.75v53.2h16.45v-26.25c0,-6.93437 1.37813,-13.65 9.975,-13.65c8.46563,0 8.575,7.83125 8.575,14v25.9h16.45v-29.225c0,-14.30625 -3.04063,-25.2 -19.775,-25.2zM72.8,98v53.2h16.625v-53.2z"/></g></g><path d="M112,224c-61.85589,0 -112,-50.14411 -112,-112v0c0,-61.85589 50.14411,-112 112,-112v0c61.85589,0 112,50.14411 112,112v0c0,61.85589 -50.14411,112 -112,112z" fill="none"/><path d="M112,219.52c-59.38166,0 -107.52,-48.13834 -107.52,-107.52v0c0,-59.38166 48.13834,-107.52 107.52,-107.52h0c59.38166,0 107.52,48.13834 107.52,107.52v0c0,59.38166 -48.13834,107.52 -107.52,107.52z" fill="none"/></g></svg>
